HIERARCHY
ROOT Hips
{
    OFFSET 0.000000 0.000000 0.000000
    CHANNELS 6 Xposition Yposition Zposition Zrotation Xrotation Yrotation
    JOINT Spine
    {
        OFFSET -0.000000 7.284621 0.000000
        CHANNELS 3 Zrotation Xrotation Yrotation
        JOINT Spine1
        {
            OFFSET -0.000000 19.968920 0.000000
            CHANNELS 3 Zrotation Xrotation Yrotation
            JOINT Neck
            {
                OFFSET -0.000000 21.745657 0.000000
                CHANNELS 3 Zrotation Xrotation Yrotation
                JOINT Head
                {
                    OFFSET -0.000000 13.769711 1.776737
                    CHANNELS 3 Zrotation Xrotation Yrotation
                    End Site
                    {
                        OFFSET -0.000000 17.767368 0.000000
                    }
                }
            }
            JOINT LeftShoulder
            {
                OFFSET 3.594505 17.711157 -0.013107
                CHANNELS 3 Zrotation Xrotation Yrotation
                JOINT LeftArm
                {
                    OFFSET 12.210003 0.000000 0.000000
                    CHANNELS 3 Zrotation Xrotation Yrotation
                    JOINT LeftForeArm
                    {
                        OFFSET 24.535166 0.000000 0.000000
                        CHANNELS 3 Zrotation Xrotation Yrotation
                        JOINT LeftHand
                        {
                            OFFSET 20.235195 0.000000 0.000000
                            CHANNELS 3 Zrotation Xrotation Yrotation
                            JOINT LeftHandThumb1
                            {
                                OFFSET 1.906737 -2.166747 3.033446
                                CHANNELS 3 Zrotation Xrotation Yrotation
                                JOINT LeftHandThumb2
                                {
                                    OFFSET 2.043247 0.000000 1.332553
                                    CHANNELS 3 Zrotation Xrotation Yrotation
                                    JOINT LeftHandThumb3
                                    {
                                        OFFSET 2.665105 0.000000 0.000000
                                        CHANNELS 3 Zrotation Xrotation Yrotation
                                        End Site
                                        {
                                            OFFSET 2.367595 0.000000 0.000000
                                        }
                                    }
                                }
                            }
                            JOINT LeftHandIndex1
                            {
                                OFFSET 7.800290 0.000000 3.033446
                                CHANNELS 3 Zrotation Xrotation Yrotation
                                JOINT LeftHandIndex2
                                {
                                    OFFSET 4.441842 0.000000 0.000000
                                    CHANNELS 3 Zrotation Xrotation Yrotation
                                    JOINT LeftHandIndex3
                                    {
                                        OFFSET 2.220921 0.000000 0.000000
                                        CHANNELS 3 Zrotation Xrotation Yrotation
                                        End Site
                                        {
                                            OFFSET 1.972996 0.000000 0.000000
                                        }
                                    }
                                }
                            }
                            JOINT LeftHandMiddle1
                            {
                                OFFSET 7.800290 0.000000 1.005371
                                CHANNELS 3 Zrotation Xrotation Yrotation
                                JOINT LeftHandMiddle2
                                {
                                    OFFSET 4.886026 0.000000 0.000000
                                    CHANNELS 3 Zrotation Xrotation Yrotation
                                    JOINT LeftHandMiddle3
                                    {
                                        OFFSET 2.665105 0.000000 0.000000
                                        CHANNELS 3 Zrotation Xrotation Yrotation
                                        End Site
                                        {
                                            OFFSET 2.367595 0.000000 0.000000
                                        }
                                    }
                                }
                            }
                            JOINT LeftHandRing1
                            {
                                OFFSET 7.366940 0.000000 -1.005371
                                CHANNELS 3 Zrotation Xrotation Yrotation
                                JOINT LeftHandRing2
                                {
                                    OFFSET 4.441842 0.000000 0.000000
                                    CHANNELS 3 Zrotation Xrotation Yrotation
                                    JOINT LeftHandRing3
                                    {
                                        OFFSET 2.220921 0.000000 0.000000
                                        CHANNELS 3 Zrotation Xrotation Yrotation
                                        End Site
                                        {
                                            OFFSET 1.972996 0.000000 0.000000
                                        }
                                    }
                                }
                            }
                            JOINT LeftHandPinky1
                            {
                                OFFSET 6.933591 0.000000 -3.033446
                                CHANNELS 3 Zrotation Xrotation Yrotation
                                JOINT LeftHandPinky2
                                {
                                    OFFSET 3.553473 0.000000 0.000000
                                    CHANNELS 3 Zrotation Xrotation Yrotation
                                    JOINT LeftHandPinky3
                                    {
                                        OFFSET 1.776737 0.000000 0.000000
                                        CHANNELS 3 Zrotation Xrotation Yrotation
                                        End Site
                                        {
                                            OFFSET 1.578397 0.000000 0.000000
                                        }
                                    }
                                }
                            }
                        }
                    }
                }
            }
            JOINT RightShoulder
            {
                OFFSET -3.500468 17.711157 -0.013107
                CHANNELS 3 Zrotation Xrotation Yrotation
                JOINT RightArm
                {
                    OFFSET -12.210003 0.000000 0.000000
                    CHANNELS 3 Zrotation Xrotation Yrotation
                    JOINT RightForeArm
                    {
                        OFFSET -24.535166 0.000000 0.000000
                        CHANNELS 3 Zrotation Xrotation Yrotation
                        JOINT RightHand
                        {
                            OFFSET -20.235195 0.000000 0.000000
                            CHANNELS 3 Zrotation Xrotation Yrotation
                            JOINT RightHandThumb1
                            {
                                OFFSET -1.906737 -2.166747 3.033446
                                CHANNELS 3 Zrotation Xrotation Yrotation
                                JOINT RightHandThumb2
                                {
                                    OFFSET -2.043247 0.000000 1.332553
                                    CHANNELS 3 Zrotation Xrotation Yrotation
                                    JOINT RightHandThumb3
                                    {
                                        OFFSET -2.665105 0.000000 0.000000
                                        CHANNELS 3 Zrotation Xrotation Yrotation
                                        End Site
                                        {
                                            OFFSET -2.367595 0.000000 0.000000
                                        }
                                    }
                                }
                            }
                            JOINT RightHandIndex1
                            {
                                OFFSET -7.800290 0.000000 3.033446
                                CHANNELS 3 Zrotation Xrotation Yrotation
                                JOINT RightHandIndex2
                                {
                                    OFFSET -4.441842 0.000000 0.000000
                                    CHANNELS 3 Zrotation Xrotation Yrotation
                                    JOINT RightHandIndex3
                                    {
                                        OFFSET -2.220921 0.000000 0.000000
                                        CHANNELS 3 Zrotation Xrotation Yrotation
                                        End Site
                                        {
                                            OFFSET -1.972996 0.000000 0.000000
                                        }
                                    }
                                }
                            }
                            JOINT RightHandMiddle1
                            {
                                OFFSET -7.800290 0.000000 1.005371
                                CHANNELS 3 Zrotation Xrotation Yrotation
                                JOINT RightHandMiddle2
                                {
                                    OFFSET -4.886026 0.000000 0.000000
                                    CHANNELS 3 Zrotation Xrotation Yrotation
                                    JOINT RightHandMiddle3
                                    {
                                        OFFSET -2.665105 0.000000 0.000000
                                        CHANNELS 3 Zrotation Xrotation Yrotation
                                        End Site
                                        {
                                            OFFSET -2.367595 0.000000 0.000000
                                        }
                                    }
                                }
                            }
                            JOINT RightHandRing1
                            {
                                OFFSET -7.366940 0.000000 -1.005371
                                CHANNELS 3 Zrotation Xrotation Yrotation
                                JOINT RightHandRing2
                                {
                                    OFFSET -4.441842 0.000000 0.000000
                                    CHANNELS 3 Zrotation Xrotation Yrotation
                                    JOINT RightHandRing3
                                    {
                                        OFFSET -2.220921 0.000000 0.000000
                                        CHANNELS 3 Zrotation Xrotation Yrotation
                                        End Site
                                        {
                                            OFFSET -1.972996 0.000000 0.000000
                                        }
                                    }
                                }
                            }
                            JOINT RightHandPinky1
                            {
                                OFFSET -6.933591 0.000000 -3.033446
                                CHANNELS 3 Zrotation Xrotation Yrotation
                                JOINT RightHandPinky2
                                {
                                    OFFSET -3.553473 0.000000 0.000000
                                    CHANNELS 3 Zrotation Xrotation Yrotation
                                    JOINT RightHandPinky3
                                    {
                                        OFFSET -1.776737 0.000000 0.000000
                                        CHANNELS 3 Zrotation Xrotation Yrotation
                                        End Site
                                        {
                                            OFFSET -1.578397 0.000000 0.000000
                                        }
                                    }
                                }
                            }
                        }
                    }
                }
            }
        }
    }
    JOINT LeftUpLeg
    {
        OFFSET 8.883684 0.000000 0.000000
        CHANNELS 3 Zrotation Xrotation Yrotation
        JOINT LeftLeg
        {
            OFFSET -0.000000 -38.184189 0.000000
            CHANNELS 3 Zrotation Xrotation Yrotation
            JOINT LeftFoot
            {
                OFFSET -0.000000 -35.840691 0.000000
                CHANNELS 3 Zrotation Xrotation Yrotation
                JOINT LeftToeBase
                {
                    OFFSET -0.000000 -5.774395 13.325527
                    CHANNELS 3 Zrotation Xrotation Yrotation
                    End Site
                    {
                        OFFSET -0.000000 0.000000 3.553473
                    }
                }
            }
        }
    }
    JOINT RightUpLeg
    {
        OFFSET -8.883684 0.000000 0.000000
        CHANNELS 3 Zrotation Xrotation Yrotation
        JOINT RightLeg
        {
            OFFSET -0.000000 -38.184189 0.000000
            CHANNELS 3 Zrotation Xrotation Yrotation
            JOINT RightFoot
            {
                OFFSET -0.000000 -35.840691 0.000000
                CHANNELS 3 Zrotation Xrotation Yrotation
                JOINT RightToeBase
                {
                    OFFSET -0.000000 -5.774395 13.325527
                    CHANNELS 3 Zrotation Xrotation Yrotation
                    End Site
                    {
                        OFFSET -0.000000 0.000000 3.553473
                    }
                }
            }
        }
    }
}
MOTION
Frames:    5
Frame Time:    0.008333
4.025492    81.206841    119.989624    1.982471    -1.315703    2.512086    0.313519    -1.407174    -1.058453    -4.221836    5.261510    -0.160113    4.777210    -3.425348    -5.636306    -1.991487    5.158343    -4.987607    1.269658    9.778376    -8.750299    -74.983109    42.509827    -11.611222    13.553336    -1.525762    -3.937459    -19.471621    -35.526558    -16.430931    3.958667    0.829730    5.812924    -0.000000    0.000000    4.480787    -0.000000    0.000000    8.961574    -7.935549    1.087363    -7.752521    -16.018454    0.000000    0.000000    -8.009229    0.000000    0.000000    -14.301182    -0.165569    -2.029769    -28.597969    0.000000    0.000000    -14.298986    0.000000    0.000000    -20.513874    -2.038290    3.522112    -41.177486    0.000000    0.000000    -20.588749    0.000000    0.000000    -26.708536    -4.574869    9.008117    -54.138199    0.000000    0.000000    -27.069099    0.000000    0.000000    -2.251539    0.785657    1.184955    90.725395    49.942062    -6.458621    -3.906155    -20.618448    4.944342    19.129028    -57.183643    10.881071    0.697952    -0.997004    2.251774    0.000000    0.000000    0.000000    0.000000    0.000000    0.000000    13.134719    0.000000    -0.000000    26.269438    0.000000    -0.000000    13.134719    0.000000    -0.000000    22.238344    0.000000    -0.000000    44.476688    0.000000    -0.000000    22.238344    0.000000    -0.000000    31.341961    0.000000    -0.000000    62.683926    0.000000    -0.000000    31.341961    0.000000    -0.000000    40.721451    0.000000    -0.000000    81.442909    0.000000    -0.000000    40.721451    0.000000    -0.000000    -4.039913    1.338966    -2.215610    -1.195626    3.402288    -4.180558    1.539956    -3.635386    3.511221    0.252705    1.197102    -0.232978    -1.313720    0.833627    1.665440    1.860387    4.715450    -0.527864    -3.370806    -3.930509    -10.201654    -0.000077    -0.135969    0.005371    
4.038999    81.212730    120.020889    1.978447    -1.286131    2.504824    0.330828    -1.406133    -1.042578    -4.231187    5.237473    -0.155262    4.788155    -3.458621    -5.638981    -1.994853    5.146806    -4.990273    1.267704    9.797194    -8.745795    -74.984009    42.497051    -11.617543    13.540382    -1.539834    -3.933919    -19.452570    -35.531532    -16.421848    3.946450    0.842440    5.817924    -0.000000    0.000000    4.487712    -0.000000    0.000000    8.975425    -8.037997    1.068588    -7.523013    -16.216509    0.000000    0.000000    -8.108254    0.000000    0.000000    -14.376518    -0.191616    -1.875143    -28.749714    0.000000    0.000000    -14.374857    0.000000    0.000000    -20.564018    -2.060843    3.602413    -41.282925    0.000000    0.000000    -20.641460    0.000000    0.000000    -26.736506    -4.583312    9.013655    -54.195915    0.000000    0.000000    -27.097958    0.000000    0.000000    -2.256903    0.810016    1.169535    90.723045    49.911892    -6.447499    -3.872108    -20.683014    4.938738    19.188354    -57.220913    10.941220    0.709349    -1.005668    2.275770    0.000000    0.000000    0.000000    0.000000    0.000000    0.000000    13.122569    0.000000    -0.000000    26.245138    0.000000    -0.000000    13.122569    0.000000    -0.000000    22.226492    0.000000    -0.000000    44.452984    0.000000    -0.000000    22.226492    0.000000    -0.000000    31.330412    0.000000    -0.000000    62.660816    0.000000    -0.000000    31.330412    0.000000    -0.000000    40.710205    0.000000    -0.000000    81.420410    0.000000    -0.000000    40.710205    0.000000    -0.000000    -4.051555    1.293275    -2.239300    -1.193497    3.488110    -4.229188    1.604143    -3.685305    3.595144    0.246493    1.150598    -0.233186    -1.316362    0.788568    1.663725    1.853218    4.796887    -0.513341    -3.356133    -3.998414    -10.211727    -0.000826    -0.136235    0.006659    
4.052514    81.218651    120.052322    1.974131    -1.255687    2.497156    0.348109    -1.405398    -1.027245    -4.240548    5.213562    -0.150791    4.798810    -3.492600    -5.641157    -1.997398    5.132977    -4.992683    1.265813    9.816081    -8.741350    -74.984886    42.483475    -11.623651    13.527769    -1.554866    -3.931156    -19.434881    -35.536968    -16.414749    3.935849    0.853280    5.822001    -0.000000    0.000000    4.493453    -0.000000    0.000000    8.986906    -8.129229    1.051468    -7.320568    -16.392988    0.000000    0.000000    -8.196495    0.000000    0.000000    -14.442668    -0.214929    -1.738624    -28.883028    0.000000    0.000000    -14.441512    0.000000    0.000000    -20.606810    -2.080818    3.673559    -41.373070    0.000000    0.000000    -20.686529    0.000000    0.000000    -26.758547    -4.590543    9.019114    -54.241589    0.000000    0.000000    -27.120792    0.000000    0.000000    -2.262563    0.832489    1.156677    90.725555    49.883675    -6.440900    -3.837800    -20.751022    4.933856    19.236057    -57.256111    10.993170    0.717238    -1.013401    2.295354    0.000000    0.000000    0.000000    0.000000    0.000000    0.000000    13.113481    0.000000    -0.000000    26.226961    0.000000    -0.000000    13.113481    0.000000    -0.000000    22.219645    0.000000    -0.000000    44.439293    0.000000    -0.000000    22.219645    0.000000    -0.000000    31.325811    0.000000    -0.000000    62.651623    0.000000    -0.000000    31.325811    0.000000    -0.000000    40.707920    0.000000    -0.000000    81.415840    0.000000    -0.000000    40.707920    0.000000    -0.000000    -4.063130    1.246739    -2.260878    -1.190716    3.573939    -4.279944    1.663432    -3.737905    3.679169    0.241000    1.110606    -0.232987    -1.318801    0.742872    1.660458    1.846063    4.877954    -0.496501    -3.341930    -4.065965    -10.222008    -0.001284    -0.136382    0.007444    
4.066340    81.224739    120.084656    1.971027    -1.226524    2.488890    0.363969    -1.402687    -1.013227    -4.250262    5.190519    -0.146642    4.809179    -3.528695    -5.642261    -1.998750    5.115460    -4.994396    1.264563    9.834653    -8.736417    -74.985962    42.469452    -11.629786    13.515333    -1.571614    -3.929467    -19.419189    -35.543293    -16.411329    3.928720    0.860576    5.824747    -0.000000    0.000000    4.497295    -0.000000    0.000000    8.994591    -8.199777    1.038375    -7.167996    -16.529631    0.000000    0.000000    -8.264816    0.000000    0.000000    -14.491974    -0.232673    -1.635321    -28.982447    0.000000    0.000000    -14.491224    0.000000    0.000000    -20.636171    -2.095892    3.728085    -41.435265    0.000000    0.000000    -20.717632    0.000000    0.000000    -26.769835    -4.595722    9.024750    -54.265434    0.000000    0.000000    -27.132717    0.000000    0.000000    -2.268826    0.850732    1.147393    90.736824    49.858040    -6.442329    -3.802704    -20.822004    4.929653    19.265102    -57.288780    11.032810    0.719545    -1.019797    2.308138    0.000000    0.000000    0.000000    0.000000    0.000000    0.000000    13.109628    0.000000    -0.000000    26.219255    0.000000    -0.000000    13.109628    0.000000    -0.000000    22.221319    0.000000    -0.000000    44.442642    0.000000    -0.000000    22.221319    0.000000    -0.000000    31.333014    0.000000    -0.000000    62.666019    0.000000    -0.000000    31.333014    0.000000    -0.000000    40.720802    0.000000    -0.000000    81.441605    0.000000    -0.000000    40.720802    0.000000    -0.000000    -4.076321    1.202487    -2.279319    -1.186889    3.658811    -4.333314    1.713536    -3.795193    3.762903    0.236924    1.082026    -0.232466    -1.322639    0.699733    1.654002    1.838722    4.957803    -0.475517    -3.328344    -4.132982    -10.232241    -0.001288    -0.136788    0.007468    
4.080373    81.230873    120.117912    1.968196    -1.197049    2.479738    0.378806    -1.399095    -1.000932    -4.259628    5.168031    -0.143004    4.818767    -3.567755    -5.641554    -1.998965    5.094069    -4.994686    1.264084    9.852108    -8.730439    -74.988403    42.455986    -11.635315    13.503326    -1.590736    -3.928130    -19.406534    -35.550739    -16.413197    3.925853    0.864248    5.826927    -0.000000    0.000000    4.499682    -0.000000    0.000000    8.999365    -8.245672    1.030388    -7.073703    -16.618721    0.000000    0.000000    -8.309361    0.000000    0.000000    -14.521516    -0.243629    -1.570948    -29.042063    0.000000    0.000000    -14.521027    0.000000    0.000000    -20.650141    -2.105065    3.762932    -41.465389    0.000000    0.000000    -20.732695    0.000000    0.000000    -26.769279    -4.598426    9.030173    -54.265194    0.000000    0.000000    -27.132597    0.000000    0.000000    -2.275325    0.865780    1.141757    90.753769    49.834244    -6.448693    -3.766076    -20.892405    4.924585    19.278770    -57.320293    11.064227    0.716903    -1.024601    2.314205    0.000000    0.000000    0.000000    0.000000    0.000000    0.000000    13.111328    0.000000    -0.000000    26.222656    0.000000    -0.000000    13.111328    0.000000    -0.000000    22.231781    0.000000    -0.000000    44.463562    0.000000    -0.000000    22.231781    0.000000    -0.000000    31.352234    0.000000    -0.000000    62.704468    0.000000    -0.000000    31.352234    0.000000    -0.000000    40.749062    0.000000    -0.000000    81.498123    0.000000    -0.000000    40.749062    0.000000    -0.000000    -4.090219    1.158650    -2.291994    -1.181701    3.743398    -4.389901    1.751773    -3.858177    3.844282    0.234574    1.066257    -0.231923    -1.326607    0.657368    1.644342    1.830548    5.036713    -0.451211    -3.315138    -4.199401    -10.241389    -0.001058    -0.137451    0.007101    
